{"title":"Nightcrawler 2014 DVDSCR NO WATERMARK XviD-INFERNO","uid":11660523,"size":1322759533,"categoryP":"video","categoryS":"movies","magnet":"?xt=urn:btih:40fcc9c62ec047857fa4a81c9be22c3d8c356518&amp;dn=Nightcrawler+2014+DVDSCR+NO+WATERMARK+XviD-INFERNO&amp;tr=udp%3A%2F%2Ftracker.openbittorrent.com%3A80&amp;tr=udp%3A%2F%2Fopen.demonii.com%3A1337&amp;tr=udp%3A%2F%2Ftracker.coppersurfer.tk%3A6969&amp;tr=udp%3A%2F%2Fexodus.desync.com%3A6969","seeders":4,"leechers":0,"uploader":"TvTeam","files":4,"time":1417991480,"description":" &lt;a href=&quot;https://www.torrenting.com&quot; rel=&quot;nofollow&quot; target=&quot;_NEW&quot;&gt;https://www.torrenting.com&lt;/a&gt;\n\nSign up is OPEN - for time being. Come and have fun.[IMG]http://lookpic.com/O/i2/990/3iwAYeX.jpeg[/IMG]\n\n[IMG]http://lookpic.com/O/i2/108/YQipbrOt.jpeg[/IMG]\n\nSource: EVO....THANKS\n &lt;a href=&quot;\nhttp://www.imdb.com/title/tt2872718/&quot; rel=&quot;nofollow&quot; target=&quot;_NEW&quot;&gt;\nhttp://www.imdb.com/title/tt2872718/&lt;/a&gt;\n\nFormat                           : AVI\nFormat/Info                      : Audio Video Interleave\nFile size                        : 1.21 GiB\nDuration                         : 1h 57mn\nOverall bit rate                 : 1 467 Kbps\nWriting library                  : VirtualDub build 35491/release\n\nVideo\nID                               : 0\nFormat                           : MPEG-4 Visual\nFormat profile                   : Advanced Simple@L5\nFormat settings, BVOP            : Yes\nFormat settings, QPel            : No\nFormat settings, GMC             : No warppoints\nFormat settings, Matrix          : Default (H.263)\nMuxing mode                      : Packed bitstream\nCodec ID                         : XVID\nCodec ID/Hint                    : XviD\nDuration                         : 1h 57mn\nBit rate                         : 1 295 Kbps\nWidth                            : 640 pixels\nHeight                           : 272 pixels\nDisplay aspect ratio             : 2.35:1\nFrame rate                       : 29.970 fps\nColor space                      : YUV\nChroma subsampling               : 4:2:0\nBit depth                        : 8 bits\nScan type                        : Progressive\nBits/(Pixel*Frame)               : 0.248\nStream size                      : 1.07 GiB (88%)\nWriting library                  : XviD 1.2.1 (UTC 2008-12-04)\n\nAudio\nID                               : 1\nFormat                           : MPEG Audio\nFormat version                   : Version 1\nFormat profile                   : Layer 3\nMode                             : Joint stereo\nMode extension                   : MS Stereo\nCodec ID                         : 55\nCodec ID/Hint                    : MP3\nDuration                         : 1h 57mn\nBit rate mode                    : Constant\nBit rate                         : 160 Kbps\nChannel(s)                       : 2 channels\nSampling rate                    : 48.0 KHz\nStream size                      : 135 MiB (11%)\nAlignment                        : Split accross interleaves\nInterleave, duration             : 33 ms (1.00 video frame)\nInterleave, preload duration     : 500 ms\nWriting library                  : LAME3.98.2\n\nWORKDONE:\nWell we done this before on the movie THE GREY. So we decided to give it a go again on watermark removal. Turn out good, can hardly tell it was removed and a bit blurry in that section, but well worth doing. We also fix the video up a bit more to our standard, so we hope you all like it.\n\n[IMG]http://lookpic.com/O/i2/602/ZQ3uAYXK.jpeg[/IMG]\n\n[IMG]http://lookpic.com/O/i2/38/4gu4dkdk.png[/IMG]\n[IMG]http://lookpic.com/O/i2/1185/Sj6lFglE.png[/IMG]\n[IMG]http://lookpic.com/O/i2/769/vx1ZXqjp.png[/IMG]\n[IMG]http://lookpic.com/O/i2/629/7JagWnJa.png[/IMG]\n[IMG]http://lookpic.com/O/i2/1304/1IUAvRST.png[/IMG]\n[IMG]http://lookpic.com/O/i2/1208/rsWGjXGJ.png[/IMG]\n\nGreets go out too:\n\nTHC, Hive, CM8, BHRG, and all who put work in\n\n[IMG]http://www.myimg.us/images/02.20.12/24265.gif[/IMG]\n\n\n+1 REP IF YOU LIKE THIS RELEASE","torrent":{"xt":"urn:btih:40fcc9c62ec047857fa4a81c9be22c3d8c356518","amp;dn":"Nightcrawler+2014+DVDSCR+NO+WATERMARK+XviD-INFERNO","amp;tr":["udp%3A%2F%2Ftracker.openbittorrent.com%3A80","udp%3A%2F%2Fopen.demonii.com%3A1337","udp%3A%2F%2Ftracker.coppersurfer.tk%3A6969","udp%3A%2F%2Fexodus.desync.com%3A6969"],"infoHash":"40fcc9c62ec047857fa4a81c9be22c3d8c356518","infoHashBuffer":{"type":"Buffer","data":[64,252,201,198,46,192,71,133,127,164,168,28,155,226,44,61,140,53,101,24]},"announce":[],"urlList":[]}}